<svg width="87" height="29" viewBox="0 0 87 29" fill="none" xmlns="http://www.w3.org/2000/svg">
<path fill-rule="evenodd" clip-rule="evenodd" d="M47 10.5316H49.8155V11.9079C49.8155 12.3515 49.8155 12.7244 49.8155 12.7244C51.2565 9.81045 56.0182 9.15766 57.0852 12.7016H57.1309C58.1129 10.7502 60.5163 9.81162 62.5631 10.4445C64.4468 11.0272 65 12.9733 65 14.778V22.4315H62.0689V15.3384C62.0689 14.0983 61.7498 12.8658 60.2765 12.964C58.8343 13.0598 57.9222 14.3414 57.6153 15.6651C57.5002 16.1315 57.4771 16.6446 57.4771 17.2051V22.4315H54.546V15.3384C54.546 14.0235 54.1703 12.781 52.612 12.9792C51.2288 13.1551 50.3802 14.4098 50.0693 15.6885C49.9537 16.1315 49.9305 16.6686 49.9305 17.2051V22.4315H47V10.5316Z" fill="#00D1C1"/>
<path fill-rule="evenodd" clip-rule="evenodd" d="M86.5181 19.7042C85.6809 19.7042 85.1983 19.3662 85.1983 18.0143V5.17236L82 8.21778V18.4726C82 21.9974 84.2085 22.4316 85.9854 22.4316C86.5181 22.4316 87 22.3596 87 22.3596V19.68C87 19.68 86.7724 19.7042 86.5181 19.7042Z" fill="#00D1C1"/>
<path fill-rule="evenodd" clip-rule="evenodd" d="M78.8834 12.3311C77.8387 10.5893 75.9361 9.72116 73.9689 9.93866C72.7015 10.079 71.3742 10.7556 70.725 11.9274C70.725 11.9274 70.725 11.5425 70.725 11.0858V10.1953H68.0039V28.2643L70.9829 25.2019V22.1262C70.9829 21.5008 70.9829 21.0676 70.9829 21.0676C71.9829 22.5606 73.9636 22.9871 75.603 22.622C79.887 21.6689 80.9481 15.7737 78.8834 12.3311ZM73.868 20.1772C72.04 20.1772 71.0147 18.4583 70.9007 16.7563C70.8055 15.3339 71.1804 13.6476 72.4813 12.8963C73.5548 12.2757 74.9779 12.4492 75.8469 13.3535C77.7471 15.3309 77.0597 20.1772 73.868 20.1772Z" fill="#00D1C1"/>
<path fill-rule="evenodd" clip-rule="evenodd" d="M41 10.2485H44V22.4315H41V10.2485Z" fill="#00D1C1"/>
<path fill-rule="evenodd" clip-rule="evenodd" d="M37.8878 16.5313C37.4325 14.4419 35.48 13.4455 33.6977 12.6872C32.5217 12.1866 30.1836 11.5625 30.2504 9.89903C30.3166 8.25082 32.2249 7.82495 33.5246 8.052C34.2581 8.18023 34.9852 8.47964 35.6293 8.88964L37.5881 6.90555C35.8261 5.19145 32.7459 4.75499 30.5181 5.56851C28.1144 6.44555 26.4553 9.1761 27.5668 11.6978C28.3851 13.5537 30.4711 14.3354 32.1831 15.0895C33.4979 15.6689 35.8099 16.6889 34.7674 18.5683C34.0241 19.9083 32.1198 19.7512 30.9055 19.3248C30.2191 19.0836 29.5518 18.7171 28.9681 18.2595L27 20.253C28.7167 22.0106 31.5478 22.753 33.8957 22.303C36.566 21.7912 38.4946 19.3177 37.8878 16.5313Z" fill="#00D1C1"/>
<path fill-rule="evenodd" clip-rule="evenodd" d="M18.4657 7.03342L21.1448 4.29423L20.5627 3.69883C15.8646 -1.10458 8.22008 -1.10479 3.52196 3.69883C-0.980409 8.3021 -1.1649 15.6699 2.96213 20.5037L0.282989 23.2428L0.865339 23.838C5.56346 28.6414 13.2077 28.6417 17.9059 23.838C22.4082 19.235 22.5927 11.8672 18.4657 7.03342ZM4.68622 4.88941C8.54603 0.943093 14.7101 0.752582 18.7924 4.31746L17.2647 5.87944C14.0157 3.15533 9.21213 3.34354 6.17834 6.44512C3.14475 9.5469 2.96046 14.4581 5.62506 17.7799L4.1268 19.3118C0.64007 15.1379 0.82661 8.83573 4.68622 4.88941ZM16.741 22.6474C12.8812 26.5938 6.71716 26.7843 2.63477 23.2194L4.16252 21.6574C7.41152 24.3817 12.2151 24.1935 15.2489 21.0919C18.2825 17.9901 18.4668 13.0789 15.8022 9.75689L17.3002 8.22526C20.787 12.3991 20.6008 18.7011 16.741 22.6474Z" fill="#00D1C1"/>
</svg>
